PathFileType	4	(X/Y/Z)	Patient4_TMGait_0pt7_01_right_33.trc.trc
DataRate	CameraRate	NumFrames	NumMarkers	Units	OrigDataRate	OrigDataStartFrame	OrigNumFrames
86.956521739130	86.956521739130	4	33	mm	86.956521739130	71	       141
Frame#	Time	Sacral			L.Shoulder			Chest			R.Shoulder			Neck			R.ASIS			L.ASIS			R.Thigh.Superior			R.Thigh.Lateral			R.Thigh.Inferior			R.Patella			L.Thigh.Superior			L.Thigh.Lateral			L.Thigh.Inferior			L.Patella			L.Shank.Superior			L.Shank.Lateral			L.Shank.Inferior			R.Shank.Superior			R.Shank.Lateral			R.Shank.Inferior			R.Heel			R.Midfoot.Superior			R.Midfoot.Lateral			R.Toe			L.Heel			L.Midfoot.Lateral			L.Midfoot.Superior			L.Toe			L.Elbow			L.Wrist			R.Elbow			R.Wrist			
		X1	Y1	Z1	X2	Y2	Z2	X3	Y3	Z3	X4	Y4	Z4	X5	Y5	Z5	X6	Y6	Z6	X7	Y7	Z7	X8	Y8	Z8	X9	Y9	Z9	X10	Y10	Z10	X11	Y11	Z11	X12	Y12	Z12	X13	Y13	Z13	X14	Y14	Z14	X15	Y15	Z15	X16	Y16	Z16	X17	Y17	Z17	X18	Y18	Z18	X19	Y19	Z19	X20	Y20	Z20	X21	Y21	Z21	X22	Y22	Z22	X23	Y23	Z23	X24	Y24	Z24	X25	Y25	Z25	X26	Y26	Z26	X27	Y27	Z27	X28	Y28	Z28	X29	Y29	Z29	X30	Y30	Z30	X31	Y31	Z31	X32	Y32	Z32	X33	Y33	Z33	

71	38.365000000000	770.713693395967	1004.814562115708	532.029812205738	947.763077732929	1420.660969191263	331.281813593080	1068.706821532321	1340.642278754776	475.465940030486	1017.063942002804	1424.092254025157	657.285051965755	980.305721792514	1479.844652248550	484.630595143043	999.726606877226	933.383683673734	635.957944439541	969.596030395568	941.219238176218	359.243997599646	989.057896122862	720.884042581729	611.917883907089	878.183734618636	631.419684710811	671.120491538039	936.371503877845	563.709238411052	592.410221423806	915.382601682546	480.855557550741	595.780410333839	1046.557470157896	774.341924839963	390.904004230514	1007.811600235356	643.477922951348	306.515283298116	1117.128892698983	591.740595227555	364.684083786047	1149.094725273132	527.887095347046	359.430723701144	1135.097945584997	454.157711982053	349.993830247900	1072.383098269481	322.111195650589	300.121058002241	1165.669152135359	226.215439706334	350.498580017846	876.919772089304	398.948242873839	599.980533482953	794.654015166409	301.472753022921	658.248584352660	829.045983899928	204.784781124742	591.534104627701	684.597330589116	43.831569832687	552.013988655880	856.070828929641	96.188427345906	593.214630666460	765.879098297928	36.522843972668	628.530920468224	974.647665322060	41.439185107565	622.245573257464	1092.591452078795	43.736430237203	389.820958792543	1164.180808605026	51.461601987876	307.752004307590	1232.278260001464	131.218716945982	326.970741591865	1366.056460769172	106.869275321698	297.702055962084	765.535430272402	1118.078543292603	249.689588709571	700.462302711151	865.357500996631	271.080086843900	1173.310805419469	1126.898767546177	766.390754143296	1405.899706713438	1162.686106439227	668.598902455125	
72	38.376500000000	772.295336045751	1003.326412076060	529.313879960792	948.266661216637	1419.381441877927	329.165430379047	1068.858684155777	1340.185911523048	474.044390477226	1015.839823881911	1423.566042669210	655.424879131073	979.888675124899	1478.871413888652	482.577936990947	1000.573603254855	932.087313713106	634.894409080955	972.213422596323	939.776372568791	358.185733465136	989.224007440499	719.371157310578	610.762681189284	877.562699805743	630.502798837057	669.692844999972	935.495722833620	562.279313874644	591.242411418518	913.536719486386	479.160569319604	594.459616872129	1048.384428623926	771.129899591807	390.196340422751	1007.328259542365	640.024472937761	307.400715170083	1116.145244506457	587.666220755247	365.642778532613	1146.812609736080	523.326568817329	361.157982103548	1132.413519054715	449.676815212737	351.694043503843	1068.432923571593	317.891835847932	303.180977819418	1161.109097351837	221.690769235777	353.808100827217	873.883881291394	397.604718447735	598.917912691381	790.324744396886	301.475097470780	657.463520426103	823.002065402679	204.127602043901	591.005007410972	676.595976832014	44.227463255657	552.100379517321	848.104001709763	96.184219633464	593.201664146310	757.863379824092	36.631888313966	628.528226549034	966.622923882618	41.049179936687	622.357282939022	1085.988603266929	41.591539306453	394.375243862834	1157.089340181868	47.868091653063	311.743869146754	1227.060900886612	125.521075335529	330.828708150826	1359.992485288671	97.973095975596	300.550751915718	763.425277090214	1118.910763078521	248.742904333054	695.501832818622	866.879039202914	270.956078311794	1175.242623095836	1128.718303186973	764.088390543307	1405.336956414738	1173.413043453001	665.372010581494	
73	38.388000000000	773.998333093345	1001.901422955418	526.458861031454	948.889033976697	1418.125158124076	326.878915874378	1069.135407272420	1339.804472542879	472.479310387476	1014.701720751980	1423.124340543245	653.428455285621	979.554067045682	1477.959859521005	480.321372603668	1001.532093843098	930.771422012418	633.663884807541	974.948753663722	938.470053730078	357.023089279359	989.605497629424	717.866041452686	609.506776805361	877.177257531109	629.570878106927	668.126612607382	934.947891063043	560.817480279097	589.998303059785	912.032977440458	477.374404901457	593.041133403556	1050.432042478903	768.126483664638	389.487047514560	1007.155745429905	636.916317267722	308.284241593399	1115.424942762971	583.955243298463	366.790011835781	1144.679735437397	518.926157298879	363.112675476674	1129.769347167085	445.294278788552	353.476437510746	1064.317099590025	313.998067400036	305.960673723969	1155.889244828732	217.179925580134	357.074000507273	871.141027650917	396.225736064381	597.765322263867	786.166546847086	301.551800068912	656.592864975617	817.062580236546	203.519858841162	590.455866337206	668.621676741338	44.812213435427	552.214388876724	840.197065940377	96.222519998625	593.203234139788	749.881415096864	36.818956099781	628.542991976828	958.622807434118	40.624352827265	622.475912707774	1077.838146044147	39.858104063861	398.405460730105	1148.701631608620	44.549041371932	315.403522704804	1220.831714582374	119.677993905292	334.774783247401	1352.887553262666	88.350811797951	303.784725755022	762.132709147158	1119.279563615366	247.565245159319	691.779864452538	867.869415790976	270.429346062995	1176.468408634895	1130.194488156574	762.082034981597	1403.884391145084	1183.064590915576	662.486043077067	
74	38.399500000000	775.756125858230	1000.610725308163	523.504983663872	949.645978648039	1416.941170202970	324.444435106514	1069.553184666975	1339.506952227590	470.774670402605	1013.717648735519	1422.790476680933	651.309550699179	979.352747788160	1477.150698105734	477.879388823045	1002.556063221321	929.490296948744	632.273247050939	977.729859444351	937.349882185870	355.750191976306	990.146068927065	716.425414967113	608.174433069304	876.977556193400	628.675234805126	666.442080966410	934.685563717976	559.378561566721	588.700244810255	910.852838125519	475.537877521756	591.566071609867	1052.640758750365	765.455578641094	388.774417356584	1007.316775566714	634.303802117260	309.052128423074	1114.990171919487	580.748226364378	368.017763843172	1142.760165489601	514.891101013731	365.153479718770	1127.295730891165	441.229529986976	355.197687844151	1060.336240952627	310.597571133174	308.219474839577	1150.367297492204	212.933046196729	360.082775593489	868.665809702582	394.863323929168	596.551687309988	782.147595033387	301.757484275613	655.653619341092	811.231459876645	203.020851554057	589.912560228633	660.685397066472	45.655156938736	552.364634439968	832.383826330628	96.315629659904	593.232766096290	741.942919795212	37.116943277524	628.582284193159	950.652931522294	40.176366636299	622.597550353004	1068.744109920802	38.564654917588	401.694292402480	1139.615538596284	41.675856852772	318.520951519183	1213.991651842576	114.075534938134	338.558832534830	1345.205687992951	78.728860729813	307.183444936797	761.704012098197	1119.177702402267	246.113809403574	689.373088407998	868.299213972524	269.476583358187	1176.995038992442	1131.275522031461	760.413928886010	1401.648900097224	1191.552935503442	659.976987352831	
